<svg xmlns="http://www.w3.org/2000/svg" viewBox="0 0 500 500" width="500" height="500" class="illustration"><title>15. Secure </title><g id="Layer_2" data-name="Layer 2"><polygon points="136.08 159.25 136.08 120.95 177.18 145.73 216.6 145.73 253.77 188.53 199.71 156.43 136.08 159.25" fill="#3fe2fd"></polygon><polygon points="355.69 120.11 373.43 184.3 351.47 184.3 355.69 120.11" fill="#3fe2fd"></polygon><polygon points="114.11 164.88 132.7 327.06 180 327.06 180 367.6 109.05 367.6 114.11 164.88" fill="#3fe2fd"></polygon><rect x="315.15" y="335.5" width="72.64" height="30.41" fill="#3fe2fd"></rect></g><g id="Layer_1" data-name="Layer 1"><path d="M107.25,372.72h69.19V408a7,7,0,0,0,7,7H311.83a7,7,0,0,0,7-7V372.72h73.92a7,7,0,0,0,7-7V188.34a7,7,0,0,0-7-7h-4.82V92a7,7,0,0,0-7-7H163a7,7,0,0,0-7,7v19.47H133.72a7,7,0,0,0-7,7v34.11H107.25a7,7,0,0,0-7,7v206.1A7,7,0,0,0,107.25,372.72Zm7-206.1h94.1l33,27.12a6.94,6.94,0,0,0,4.45,1.6h140V358.72H318.83V301.53a7,7,0,0,0-7-7H293.49V281.78a43,43,0,0,0-42.9-42.9h-5.9a43,43,0,0,0-42.91,42.9v12.75H183.44a7,7,0,0,0-7,7v57.19H114.25ZM373.93,99v82.3H358.64V118.51a7,7,0,0,0-7-7H170V99Zm-29.29,26.47v55.83H248.29l-33-27.13a7,7,0,0,0-4.45-1.59H140.72V125.51ZM190.44,401V308.53H304.83V401Zm54.25-148.07h5.9a28.93,28.93,0,0,1,28.9,28.9v12.75H215.78V281.78A28.94,28.94,0,0,1,244.69,252.88Z" fill="#251ac7"></path><path d="M256.72,355.72a14.65,14.65,0,1,0-14,.61V373a7,7,0,0,0,14,0Z" fill="#251ac7"></path></g></svg>