<svg xmlns="http://www.w3.org/2000/svg" viewBox="0 0 100 100" width="500" height="500" class="illustration"><title>15 - Secure</title><g id="Layer_1" data-name="Layer 1"><path d="M49.38,26.63,48,21a2.57,2.57,0,0,0-2.5-2H22.75a2.57,2.57,0,0,0-2.57,2.58v55a2.58,2.58,0,0,0,2.57,2.58H84.81a2.59,2.59,0,0,0,2.58-2.58V31.18a2.58,2.58,0,0,0-2.58-2.57H51.88A2.57,2.57,0,0,1,49.38,26.63Z" fill="#ff9515"></path><path d="M44.85,26.63,43.5,21a2.57,2.57,0,0,0-2.5-2H18.22a2.57,2.57,0,0,0-2.57,2.58v55a2.58,2.58,0,0,0,2.57,2.58H80.28a2.59,2.59,0,0,0,2.58-2.58V31.18a2.58,2.58,0,0,0-2.58-2.57H47.35A2.57,2.57,0,0,1,44.85,26.63Z" fill="#ffd44d"></path><path d="M65.28,36.34v15.1a20.31,20.31,0,0,1-7.74,16,19.79,19.79,0,0,1-6.32,3.39,19.74,19.74,0,0,1-6.31-3.39,20.31,20.31,0,0,1-7.74-16V36.34Z" fill="#0064f4"></path><polygon points="47.17 67.07 48.58 67.07 48.58 65.24 46.27 65.24 47.17 67.07" fill="#0064f4"></polygon><polygon points="51.22 70.8 49.41 70.8 49.41 67.73 50.41 67.73 51.22 70.8" fill="#0064f4"></polygon><path d="M63.46,36.34v15.1a20.3,20.3,0,0,1-7.73,16,19.89,19.89,0,0,1-6.32,3.39,19.63,19.63,0,0,1-6.31-3.39,20.31,20.31,0,0,1-7.74-16V36.34Z" fill="#0099f5"></path><path d="M61,39.33V51.81A16.75,16.75,0,0,1,54.63,65a16.47,16.47,0,0,1-5.22,2.81A16.53,16.53,0,0,1,44.2,65a16.75,16.75,0,0,1-6.4-13.2V39.33Z" fill="#fff"></path><path d="M61,39.33V51.81A16.75,16.75,0,0,1,54.63,65a16.47,16.47,0,0,1-5.22,2.81V39.33Z" fill="#0064f4"></path></g><g id="Layer_2" data-name="Layer 2"><path d="M69.11,28.61H51.88a2.57,2.57,0,0,1-2.5-2L48,21a2.57,2.57,0,0,0-2.5-2H22.75" fill="none" stroke="#231f20" stroke-linecap="round" stroke-linejoin="round"></path><path d="M22.75,79.18H84.81a2.59,2.59,0,0,0,2.58-2.58V31.18a2.58,2.58,0,0,0-2.58-2.57H80.28" fill="none" stroke="#231f20" stroke-linecap="round" stroke-linejoin="round"></path><path d="M71.36,28.61h-24a2.57,2.57,0,0,1-2.5-2L43.5,21a2.57,2.57,0,0,0-2.5-2H18.22a2.57,2.57,0,0,0-2.57,2.58v55a2.58,2.58,0,0,0,2.57,2.58H80.28a2.59,2.59,0,0,0,2.58-2.58V31.18a2.58,2.58,0,0,0-2.58-2.57" fill="none" stroke="#231f20" stroke-linecap="round" stroke-linejoin="round"></path><path d="M37.17,36.34H65.28v15.1a20.31,20.31,0,0,1-7.74,16,19.79,19.79,0,0,1-6.32,3.39" fill="none" stroke="#231f20" stroke-linecap="round" stroke-linejoin="round"></path><path d="M63.46,36.34v15.1a20.3,20.3,0,0,1-7.73,16,19.89,19.89,0,0,1-6.32,3.39,19.63,19.63,0,0,1-6.31-3.39,20.31,20.31,0,0,1-7.74-16V36.34Z" fill="none" stroke="#231f20" stroke-linecap="round" stroke-linejoin="round"></path><path d="M61,51.81A16.75,16.75,0,0,1,54.63,65a16.47,16.47,0,0,1-5.22,2.81A16.53,16.53,0,0,1,44.2,65a16.75,16.75,0,0,1-6.4-13.2V39.33H61" fill="none" stroke="#231f20" stroke-linecap="round" stroke-linejoin="round"></path><path d="M61,51.81A16.75,16.75,0,0,1,54.63,65a16.47,16.47,0,0,1-5.22,2.81V39.33H61" fill="none" stroke="#231f20" stroke-linecap="round" stroke-linejoin="round"></path></g></svg>