<svg xmlns="http://www.w3.org/2000/svg" viewBox="0 0 100 100" width="500" height="500" class="illustration"><defs><style>.cls-1{fill:#201d1d;}.cls-1,.cls-2,.cls-3,.cls-4,.cls-5{stroke:#201d1d;}.cls-1,.cls-2,.cls-3,.cls-4,.cls-5,.cls-6{stroke-miterlimit:10;stroke-width:1.5px;}.cls-2{fill:#3781f7;}.cls-3{fill:#ef3972;}.cls-4{fill:#fff;}.cls-5{fill:#f8d533;}.cls-6{fill:none;stroke:#221f20;}</style></defs><g id="Layer_3" data-name="Layer 3"><path class="cls-1" d="M80.35,21.78H43.48a3.39,3.39,0,0,0-2.36.94l-6.4,6.07a3.43,3.43,0,0,0,0,5l6.4,6.08a3.43,3.43,0,0,0,2.36.94H80.35a3.45,3.45,0,0,0,2.36-.94l6.4-6.08a3.43,3.43,0,0,0,0-5l-6.4-6.07A3.4,3.4,0,0,0,80.35,21.78Z"></path><path class="cls-2" d="M69.6,21.78H32.73a3.4,3.4,0,0,0-2.36.94L24,28.79a3.43,3.43,0,0,0,0,5l6.4,6.08a3.45,3.45,0,0,0,2.36.94H69.6A3.45,3.45,0,0,0,72,39.84l6.4-6.08a3.43,3.43,0,0,0,0-5L72,22.72A3.4,3.4,0,0,0,69.6,21.78Z"></path><path class="cls-3" d="M50.75,35.76h.83A1.45,1.45,0,0,1,53,37.22v3.56a0,0,0,0,1,0,0H49.3a0,0,0,0,1,0,0V37.22A1.45,1.45,0,0,1,50.75,35.76Z"></path><path class="cls-4" d="M57.14,35.76H58a1.45,1.45,0,0,1,1.45,1.45v3.56a0,0,0,0,1,0,0H55.69a0,0,0,0,1,0,0V37.22A1.45,1.45,0,0,1,57.14,35.76Z"></path><path class="cls-1" d="M63.53,35.76h.83a1.45,1.45,0,0,1,1.45,1.45v3.56a0,0,0,0,1,0,0H62.08a0,0,0,0,1,0,0V37.22A1.45,1.45,0,0,1,63.53,35.76Z"></path><rect class="cls-4" x="31.68" y="28.17" width="11.12" height="6.47" rx="1.06"></rect><line class="cls-4" x1="46.51" y1="28.17" x2="70.2" y2="28.17"></line><line class="cls-4" x1="46.51" y1="31.4" x2="57.91" y2="31.4"></line><path class="cls-1" d="M80.35,40.78H43.48a3.39,3.39,0,0,0-2.36.94l-6.4,6.07a3.43,3.43,0,0,0,0,5l6.4,6.08a3.43,3.43,0,0,0,2.36.94H80.35a3.45,3.45,0,0,0,2.36-.94l6.4-6.08a3.43,3.43,0,0,0,0-5l-6.4-6.07A3.4,3.4,0,0,0,80.35,40.78Z"></path><path class="cls-2" d="M69.6,40.78H32.73a3.4,3.4,0,0,0-2.36.94L24,47.79a3.43,3.43,0,0,0,0,5l6.4,6.08a3.45,3.45,0,0,0,2.36.94H69.6A3.45,3.45,0,0,0,72,58.84l6.4-6.08a3.43,3.43,0,0,0,0-5L72,41.72A3.4,3.4,0,0,0,69.6,40.78Z"></path><path class="cls-4" d="M50.75,54.76h.83A1.45,1.45,0,0,1,53,56.22v3.56a0,0,0,0,1,0,0H49.3a0,0,0,0,1,0,0V56.22A1.45,1.45,0,0,1,50.75,54.76Z"></path><path class="cls-5" d="M57.14,54.76H58a1.45,1.45,0,0,1,1.45,1.45v3.56a0,0,0,0,1,0,0H55.69a0,0,0,0,1,0,0V56.22A1.45,1.45,0,0,1,57.14,54.76Z"></path><path class="cls-3" d="M63.53,54.76h.83a1.45,1.45,0,0,1,1.45,1.45v3.56a0,0,0,0,1,0,0H62.08a0,0,0,0,1,0,0V56.22A1.45,1.45,0,0,1,63.53,54.76Z"></path><rect class="cls-5" x="31.68" y="47.17" width="11.12" height="6.47" rx="1.06"></rect><line class="cls-4" x1="46.51" y1="47.17" x2="70.2" y2="47.17"></line><line class="cls-4" x1="46.51" y1="50.4" x2="57.91" y2="50.4"></line><path class="cls-1" d="M80.35,59.78H43.48a3.39,3.39,0,0,0-2.36.94l-6.4,6.08a3.42,3.42,0,0,0,0,5l6.4,6.08a3.43,3.43,0,0,0,2.36.94H80.35a3.45,3.45,0,0,0,2.36-.94l6.4-6.08a3.42,3.42,0,0,0,0-5l-6.4-6.08A3.4,3.4,0,0,0,80.35,59.78Z"></path><path class="cls-2" d="M69.6,59.78H32.73a3.4,3.4,0,0,0-2.36.94L24,66.8a3.42,3.42,0,0,0,0,5l6.4,6.08a3.45,3.45,0,0,0,2.36.94H69.6A3.45,3.45,0,0,0,72,77.84l6.4-6.08a3.42,3.42,0,0,0,0-5L72,60.72A3.4,3.4,0,0,0,69.6,59.78Z"></path><path class="cls-4" d="M50.75,73.77h.83A1.45,1.45,0,0,1,53,75.22v3.56a0,0,0,0,1,0,0H49.3a0,0,0,0,1,0,0V75.22A1.45,1.45,0,0,1,50.75,73.77Z"></path><path class="cls-4" d="M57.14,73.77H58a1.45,1.45,0,0,1,1.45,1.45v3.56a0,0,0,0,1,0,0H55.69a0,0,0,0,1,0,0V75.22A1.45,1.45,0,0,1,57.14,73.77Z"></path><path class="cls-4" d="M63.53,73.77h.83a1.45,1.45,0,0,1,1.45,1.45v3.56a0,0,0,0,1,0,0H62.08a0,0,0,0,1,0,0V75.22A1.45,1.45,0,0,1,63.53,73.77Z"></path><rect class="cls-1" x="31.68" y="66.17" width="11.12" height="6.47" rx="1.06"></rect><line class="cls-4" x1="46.51" y1="66.17" x2="70.2" y2="66.17"></line><line class="cls-4" x1="46.51" y1="69.4" x2="57.91" y2="69.4"></line></g><g id="Layer_2" data-name="Layer 2"><path class="cls-5" d="M90.22,62.93,82.3,68.8a2.74,2.74,0,0,1-3.14,0l-7.92-5.87a8.27,8.27,0,0,1-3-6.23V41.07h25V56.7A8.27,8.27,0,0,1,90.22,62.93Z"></path><path class="cls-6" d="M80.17,45.81h1.12a2.44,2.44,0,0,1,2.44,2.44v5.83a0,0,0,0,1,0,0h-6a0,0,0,0,1,0,0V48.25A2.44,2.44,0,0,1,80.17,45.81Z"></path><rect class="cls-2" x="74.42" y="50.63" width="12.63" height="8.27"></rect></g></svg>